# xmcd
#
# Track frame offsets:
#	150
#	19229
#	36055
#	55086
#	67551
#	83212
#	99541
#	114011
#	129249
#
# Disc length: 1980 seconds
#
# Revision: 0
# Processed by: cddbd v1.5.2PL0 Copyright (c) Steve Scherf et al.
# Submitted via: EasyCDDAExtractor 12.0.1.1
#
DISCID=5f07ba09
DTITLE=Peter Seltser - east blends west
DYEAR=2007
DGENRE=
TTITLE0=by my side
TTITLE1=please send me someone to love
TTITLE2=missing you
TTITLE3=fly
TTITLE4=one heart
TTITLE5=download your love
TTITLE6=falling in love again
TTITLE7=your one, your only, me
TTITLE8=loving him
EXTD=
EXTT0=
EXTT1=
EXTT2=
EXTT3=
EXTT4=
EXTT5=
EXTT6=
EXTT7=
EXTT8=
PLAYORDER=
